# xmcd
#
# Track frame offsets:
# 165
# 14995
# 32690
# 43265
# 57701
# 71938
# 88355
# 108874
# 121121
# 136041
# 156083
# 170227
#
# Disc length: 2432 seconds
#
#
# Revision: 0
# Processed by: cddbd v1.5.2PL0 Copyright (c) Steve Scherf et al.
# Submitted via: FreeRIP 2.951 
#
DISCID=b3097e0c
DTITLE=Alex Vargas - Alex Vargas
DYEAR=1992
DGENRE=Country
TTITLE0=Guri Gaiteiro
TTITLE1=Na Parceria
TTITLE2=Descendo a Serra
TTITLE3=Negrinho do Pastoreio
TTITLE4=Na Última Hora
TTITLE5=Pra Sempre
TTITLE6=Quebrando Todas
TTITLE7=Em tua homenagem
TTITLE8=Minha Luz
TTITLE9=Noturna
TTITLE10=Seu Manique
TTITLE11=Banho de Caneca
EXTD=O músico é um componente da banda gaúcha "Tchê Guri"
EXTT0=
EXTT1=
EXTT2=
EXTT3=
EXTT4=
EXTT5=
EXTT6=
EXTT7=
EXTT8=
EXTT9=
EXTT10=
EXTT11=
PLAYORDER=
